<?xml version="1.0" encoding="UTF-8" standalone="no"?>
<!-- Created with Inkscape (http://www.inkscape.org/) -->

<svg
   xmlns:dc="http://purl.org/dc/elements/1.1/"
   xmlns:cc="http://creativecommons.org/ns#"
   xmlns:rdf="http://www.w3.org/1999/02/22-rdf-syntax-ns#"
   xmlns:svg="http://www.w3.org/2000/svg"
   xmlns="http://www.w3.org/2000/svg"
   xmlns:sodipodi="http://sodipodi.sourceforge.net/DTD/sodipodi-0.dtd"
   xmlns:inkscape="http://www.inkscape.org/namespaces/inkscape"
   width="150mm"
   height="40mm"
   viewBox="0 0 150 40"
   version="1.1"
   id="svg8"
   inkscape:version="0.92.0 r"
   sodipodi:docname="logo.svg">
  <defs
     id="defs2" />
  <sodipodi:namedview
     id="base"
     pagecolor="#ffffff"
     bordercolor="#666666"
     borderopacity="1.0"
     inkscape:pageopacity="0.0"
     inkscape:pageshadow="2"
     inkscape:zoom="1"
     inkscape:cx="56.12949"
     inkscape:cy="172.72803"
     inkscape:document-units="mm"
     inkscape:current-layer="layer1"
     showgrid="false"
     inkscape:measure-start="0,0"
     inkscape:measure-end="0,0"
     inkscape:window-width="1688"
     inkscape:window-height="1051"
     inkscape:window-x="0"
     inkscape:window-y="29"
     inkscape:window-maximized="1" />
  <metadata
     id="metadata5">
    <rdf:RDF>
      <cc:Work
         rdf:about="">
        <dc:format>image/svg+xml</dc:format>
        <dc:type
           rdf:resource="http://purl.org/dc/dcmitype/StillImage" />
        <dc:title />
      </cc:Work>
    </rdf:RDF>
  </metadata>
  <g
     inkscape:label="Camada 1"
     inkscape:groupmode="layer"
     id="layer1"
     transform="translate(0,-257)">
    <g
       id="g960"
       transform="matrix(0.77164407,0,0,0.77164407,99.738762,31.262199)">
      <g
         transform="matrix(0.4989554,-0.31313864,0.31313864,0.4989554,-56.870704,105.71297)"
         id="g934">
        <circle
           style="fill:none;stroke:#004455;stroke-width:8.74087524;stroke-miterlimit:4;stroke-dasharray:none;stroke-opacity:1"
           r="33.699707"
           cy="386.30862"
           cx="10.350807"
           id="circle936"
           transform="rotate(12.984345)" />
        <g
           style="fill:#000000;stroke:#004455;stroke-width:7.9375;stroke-miterlimit:4;stroke-dasharray:none"
           transform="matrix(0.95043129,0.21915084,-0.24742574,1.0730562,-96.511264,225.1066)"
           id="g942">
          <path
             style="fill:#000000;stroke:#004455;stroke-width:7.9375;stroke-miterlimit:4;stroke-dasharray:none;stroke-opacity:1"
             d="m 72.168997,129.38133 h 6.223551 c 2.436733,-0.40047 3.796152,-1.68813 5.556251,-2.64583 v 10.31875 c -1.790725,-1.02192 -3.515298,-2.2423 -5.556251,-2.51354 h -6.223551 z"
             id="path938"
             inkscape:connector-curvature="0"
             sodipodi:nodetypes="ccccccc" />
          <path
             sodipodi:nodetypes="ccccccc"
             inkscape:connector-curvature="0"
             id="path940"
             d="m 38.181705,129.38133 h -6.223551 c -2.436733,-0.40047 -3.796152,-1.68813 -5.556251,-2.64583 v 10.31875 c 1.790725,-1.02192 3.515298,-2.2423 5.556251,-2.51354 h 6.223551 z"
             style="fill:#000000;stroke:#004455;stroke-width:7.9375;stroke-miterlimit:4;stroke-dasharray:none;stroke-opacity:1" />
        </g>
        <circle
           r="14.341273"
           cy="386.30862"
           cx="10.350807"
           id="circle944"
           style="fill:#164450;stroke:#004455;stroke-width:5.92171383;stroke-miterlimit:4;stroke-dasharray:none;stroke-opacity:1"
           transform="rotate(12.984345)" />
        <circle
           style="fill:none;stroke:#37abc8;stroke-width:8.74087524;stroke-miterlimit:4;stroke-dasharray:none;stroke-opacity:1"
           r="33.699707"
           cy="383.67117"
           cx="8.5056381"
           id="circle4570"
           transform="rotate(12.984345)" />
        <g
           style="fill:#000000;stroke:#37abc8;stroke-width:7.9375;stroke-miterlimit:4;stroke-dasharray:none"
           transform="matrix(0.95043129,0.21915084,-0.24742574,1.0730562,-97.716665,222.12198)"
           id="g4576">
          <path
             style="fill:#000000;stroke:#37abc8;stroke-width:7.9375;stroke-miterlimit:4;stroke-dasharray:none;stroke-opacity:1"
             d="m 72.168997,129.38133 h 6.223551 c 2.436733,-0.40047 3.796152,-1.68813 5.556251,-2.64583 v 10.31875 c -1.790725,-1.02192 -3.515298,-2.2423 -5.556251,-2.51354 h -6.223551 z"
             id="path4572"
             inkscape:connector-curvature="0"
             sodipodi:nodetypes="ccccccc" />
          <path
             sodipodi:nodetypes="ccccccc"
             inkscape:connector-curvature="0"
             id="path4574"
             d="m 38.181705,129.38133 h -6.223551 c -2.436733,-0.40047 -3.796152,-1.68813 -5.556251,-2.64583 v 10.31875 c 1.790725,-1.02192 3.515298,-2.2423 5.556251,-2.51354 h 6.223551 z"
             style="fill:#000000;stroke:#37abc8;stroke-width:7.9375;stroke-miterlimit:4;stroke-dasharray:none;stroke-opacity:1" />
        </g>
        <circle
           r="14.341273"
           cy="383.67117"
           cx="8.5056381"
           id="circle4578"
           style="fill:none;stroke:#37abc8;stroke-width:5.92171383;stroke-miterlimit:4;stroke-dasharray:none;stroke-opacity:1"
           transform="rotate(12.984345)" />
      </g>
    </g>
    <g
       aria-label="Driven"
       style="font-style:normal;font-variant:normal;font-weight:normal;font-stretch:normal;font-size:31.65572166px;line-height:19.78482628px;font-family:'Schumacher Clean';-inkscape-font-specification:'Schumacher Clean';letter-spacing:0px;word-spacing:0px;fill:#aa4400;fill-opacity:1;stroke:none;stroke-width:0.79139298"
       id="text4664">
      <path
         d="m 24.568359,293.98741 q -1.836032,0 -4.1469,-0.31656 -1.266229,-0.15828 -1.741064,-0.66477 -0.474836,-0.50649 -0.411525,-1.64609 0.22159,-3.13392 1.044639,-7.724 0.823049,-4.62174 1.994311,-8.89526 0.22159,-0.79139 0.88636,-1.10795 0.66477,-0.31656 1.741064,-0.31656 1.930999,0 1.930999,1.0763 0,0.44318 -0.189934,1.01298 -0.823049,2.53246 -1.646097,6.80598 -0.823049,4.24187 -1.171262,8.10387 0.949672,0.095 2.152589,0.095 5.539751,0 8.262143,-3.3555 2.754048,-3.35551 2.754048,-8.95857 0,-3.76703 -2.152589,-5.82465 -2.152589,-2.05763 -6.077899,-2.05763 -2.532457,0 -5.033259,0.7914 -2.469147,0.79139 -4.463457,2.08927 -0.411524,0.28491 -0.88636,0.28491 -0.538148,0 -0.854705,-0.44318 -0.316557,-0.47484 -0.316557,-1.13961 0,-0.75974 0.253246,-1.23457 0.253246,-0.50649 0.854704,-0.91802 2.184245,-1.48782 5.128227,-2.24756 2.943982,-0.79139 5.666374,-0.79139 3.861998,0 6.679358,1.3612 2.817359,1.32954 4.336834,3.92531 1.519474,2.59577 1.519474,6.26783 0,4.78001 -1.899343,8.35711 -1.899343,3.54544 -5.539751,5.5081 -3.640408,1.96265 -8.673668,1.96265 z"
         style="font-style:normal;font-variant:normal;font-weight:normal;font-stretch:normal;font-family:Pacifico;-inkscape-font-specification:Pacifico;fill:#aa4400;stroke-width:0.79139298"
         id="path94" />
      <path
         d="m 44.738494,293.98741 q -1.202917,0 -1.709409,-1.26623 -0.474836,-1.26623 -0.474836,-4.05193 0,-4.11524 1.171262,-7.81896 0.284901,-0.91802 0.918016,-1.32954 0.66477,-0.44318 1.836032,-0.44318 0.633114,0 0.88636,0.15827 0.253246,0.15828 0.253246,0.60146 0,0.50649 -0.474836,2.27922 -0.316557,1.26622 -0.506492,2.2159 -0.189934,0.94967 -0.316557,2.34252 1.044639,-2.72239 2.342524,-4.4318 1.297884,-1.70941 2.532457,-2.43749 1.266229,-0.72808 2.310868,-0.72808 2.057622,0 2.057622,2.05762 0,0.41152 -0.284902,1.99431 -0.253245,1.26623 -0.253245,1.58278 0,1.10795 0.791393,1.10795 0.88636,0 2.279212,-1.39285 0.411524,-0.41152 0.854704,-0.41152 0.411524,0 0.633115,0.37987 0.253245,0.34821 0.253245,0.94967 0,1.17126 -0.633114,1.83603 -0.88636,0.91802 -2.089278,1.58279 -1.171261,0.63311 -2.500802,0.63311 -1.677753,0 -2.564113,-0.8547 -0.854705,-0.85471 -0.854705,-2.31087 0,-0.47484 0.09497,-0.94967 0.06331,-0.63312 0.06331,-0.85471 0,-0.50649 -0.348213,-0.50649 -0.474836,0 -1.266229,1.0763 -0.759737,1.04463 -1.519475,2.7857 -0.759737,1.74106 -1.234573,3.67206 -0.348213,1.48782 -0.823048,2.02597 -0.443181,0.50649 -1.424508,0.50649 z"
         style="font-style:normal;font-variant:normal;font-weight:normal;font-stretch:normal;font-family:Pacifico;-inkscape-font-specification:Pacifico;fill:#aa4400;stroke-width:0.79139298"
         id="path96" />
      <path
         d="m 61.043662,276.98829 q -1.32954,0 -1.99431,-0.60146 -0.664771,-0.63311 -0.664771,-1.74107 0,-1.10795 0.854705,-1.83603 0.88636,-0.75973 2.184245,-0.75973 1.171261,0 1.899343,0.5698 0.728082,0.5698 0.728082,1.61444 0,1.26623 -0.823049,2.02597 -0.823049,0.72808 -2.184245,0.72808 z m -0.253246,16.99912 q -2.057622,0 -3.007293,-1.45616 -0.918016,-1.45617 -0.918016,-3.862 0,-1.42451 0.348213,-3.64041 0.379868,-2.24755 0.949671,-4.17855 0.284902,-1.01299 0.759738,-1.39286 0.474836,-0.37986 1.519474,-0.37986 1.614442,0 1.614442,1.07629 0,0.79139 -0.601459,3.67206 -0.759737,3.48213 -0.759737,4.71671 0,0.94967 0.253246,1.45616 0.253246,0.50649 0.854704,0.50649 0.569803,0 1.424508,-0.79139 0.854704,-0.79139 2.279212,-2.5008 0.379868,-0.44318 0.854704,-0.44318 0.411525,0 0.633115,0.37986 0.253245,0.37987 0.253245,1.04464 0,1.26623 -0.601458,1.96266 -3.133917,3.83034 -5.856309,3.83034 z"
         style="font-style:normal;font-variant:normal;font-weight:normal;font-stretch:normal;font-family:Pacifico;-inkscape-font-specification:Pacifico;fill:#aa4400;stroke-width:0.79139298"
         id="path98" />
      <path
         d="m 80.66576,284.20579 q 0.09497,-0.0316 0.316557,-0.0316 0.474836,0 0.728081,0.31655 0.253246,0.31656 0.253246,0.85471 0,0.98133 -0.379869,1.55113 -0.379868,0.53815 -1.139605,0.79139 -1.456164,0.47484 -3.102261,0.47484 -1.392852,0 -2.627425,-0.37987 -0.918016,1.48782 -2.025966,3.0706 -1.266229,1.80438 -2.184245,2.46915 -0.918016,0.66477 -2.089278,0.66477 -1.297884,0 -2.057622,-1.01298 -0.728081,-1.01299 -0.918016,-3.19723 -0.379868,-4.4318 -0.379868,-7.75565 v -1.10795 q 0.03166,-1.04464 0.569803,-1.45617 0.538147,-0.41152 1.614442,-0.41152 0.823048,0 1.202917,0.37987 0.411524,0.34821 0.411524,1.20292 0,3.6404 0.44318,9.46506 1.899344,-2.81736 2.849015,-4.49512 -0.474835,-0.91801 -0.474835,-2.18424 0,-1.07629 0.474835,-2.08928 0.474836,-1.01298 1.297885,-1.6461 0.823049,-0.63311 1.867688,-0.63311 0.918016,0 1.487819,0.66477 0.569803,0.63311 0.569803,1.86769 0,1.42451 -0.759738,3.26054 1.202918,-0.0633 3.197228,-0.47484 z"
         style="font-style:normal;font-variant:normal;font-weight:normal;font-stretch:normal;font-family:Pacifico;-inkscape-font-specification:Pacifico;fill:#aa4400;stroke-width:0.79139298"
         id="path100" />
      <path
         d="m 93.334974,286.76991 q 0.411524,0 0.633114,0.37986 0.253246,0.37987 0.253246,1.04464 0,1.26623 -0.601459,1.96266 -1.171261,1.42451 -3.323851,2.62742 -2.120933,1.20292 -4.558423,1.20292 -3.323851,0 -5.159883,-1.80438 -1.836032,-1.80437 -1.836032,-4.93829 0,-2.18424 0.918016,-4.05193 0.918016,-1.89934 2.532458,-3.00729 1.646097,-1.10795 3.703719,-1.10795 1.836032,0 2.943982,1.10795 1.107951,1.07629 1.107951,2.94398 0,2.18424 -1.582787,3.76703 -1.55113,1.55113 -5.286505,2.46915 0.791393,1.45616 3.007293,1.45616 1.424508,0 3.228884,-0.98133 1.836032,-1.01298 3.165572,-2.62742 0.379869,-0.44318 0.854705,-0.44318 z m -7.977242,-4.59008 q -1.171262,0 -1.994311,1.36119 -0.791393,1.3612 -0.791393,3.2922 v 0.0633 q 1.867688,-0.44318 2.943982,-1.32954 1.076295,-0.88636 1.076295,-2.05762 0,-0.60146 -0.348213,-0.94967 -0.316557,-0.37987 -0.88636,-0.37987 z"
         style="font-style:normal;font-variant:normal;font-weight:normal;font-stretch:normal;font-family:Pacifico;-inkscape-font-specification:Pacifico;fill:#aa4400;stroke-width:0.79139298"
         id="path102" />
      <path
         d="m 93.89142,293.98741 q -1.202918,0 -1.709409,-1.26623 -0.474836,-1.26623 -0.474836,-4.05193 0,-4.11524 1.171261,-7.81896 0.284902,-0.91802 0.918016,-1.32954 0.664771,-0.44318 1.836032,-0.44318 0.633115,0 0.88636,0.15827 0.253246,0.15828 0.253246,0.60146 0,0.50649 -0.474836,2.27922 -0.316557,1.26622 -0.506491,2.2159 -0.189934,0.94967 -0.316557,2.34252 1.044638,-2.72239 2.342523,-4.4318 1.297885,-1.70941 2.532461,-2.43749 1.26623,-0.72808 2.31086,-0.72808 1.01299,0 1.51948,0.53814 0.53815,0.50649 0.53815,1.51948 0,0.82305 -0.34822,3.10226 -0.31655,1.931 -0.50649,3.67206 -0.18993,1.70941 -0.18993,3.83034 0,1.20292 -0.50649,1.74107 -0.47484,0.50649 -1.58279,0.50649 -1.04464,0 -1.51947,-0.53815 -0.474841,-0.53814 -0.474841,-1.61444 0,-1.26623 0.443181,-4.17855 0.37987,-2.53246 0.37987,-3.22889 0,-0.50649 -0.34821,-0.50649 -0.411529,0 -1.171266,1.0763 -0.728082,1.04463 -1.519475,2.7857 -0.759737,1.74106 -1.234573,3.67206 -0.348213,1.48782 -0.823049,2.02597 -0.44318,0.50649 -1.424507,0.50649 z"
         style="font-style:normal;font-variant:normal;font-weight:normal;font-stretch:normal;font-family:Pacifico;-inkscape-font-specification:Pacifico;fill:#aa4400;stroke-width:0.79139298"
         id="path104" />
    </g>
    <g
       aria-label="Driven"
       style="font-style:normal;font-variant:normal;font-weight:normal;font-stretch:normal;font-size:31.65572166px;line-height:19.78482628px;font-family:'Schumacher Clean';-inkscape-font-specification:'Schumacher Clean';letter-spacing:0px;word-spacing:0px;fill:#000000;fill-opacity:1;stroke:none;stroke-width:0.79139298"
       id="text4652">
      <path
         d="m 23.469268,292.33879 q -1.836032,0 -4.146899,-0.31656 -1.266229,-0.15828 -1.741065,-0.66477 -0.474836,-0.50649 -0.411524,-1.64609 0.22159,-3.13392 1.044638,-7.724 0.823049,-4.62174 1.994311,-8.89526 0.22159,-0.79139 0.88636,-1.10795 0.66477,-0.31656 1.741065,-0.31656 1.930999,0 1.930999,1.0763 0,0.44318 -0.189934,1.01298 -0.823049,2.53246 -1.646098,6.80598 -0.823049,4.24187 -1.171262,8.10387 0.949672,0.095 2.152589,0.095 5.539752,0 8.262144,-3.3555 2.754048,-3.35551 2.754048,-8.95857 0,-3.76703 -2.15259,-5.82465 -2.152589,-2.05763 -6.077898,-2.05763 -2.532458,0 -5.03326,0.7914 -2.469146,0.79139 -4.463457,2.08927 -0.411524,0.28491 -0.88636,0.28491 -0.538147,0 -0.854704,-0.44318 -0.316558,-0.47484 -0.316558,-1.13961 0,-0.75974 0.253246,-1.23457 0.253246,-0.5065 0.854705,-0.91802 2.184245,-1.48782 5.128227,-2.24756 2.943982,-0.79139 5.666374,-0.79139 3.861998,0 6.679357,1.3612 2.817359,1.32954 4.336834,3.92531 1.519475,2.59577 1.519475,6.26783 0,4.78001 -1.899344,8.35711 -1.899343,3.54544 -5.539751,5.5081 -3.640408,1.96265 -8.673668,1.96265 z"
         style="font-style:normal;font-variant:normal;font-weight:normal;font-stretch:normal;font-family:Pacifico;-inkscape-font-specification:Pacifico;fill:#ff6600;stroke-width:0.79139298"
         id="path81"
         inkscape:connector-curvature="0" />
      <path
         d="m 43.639404,292.33879 q -1.202918,0 -1.709409,-1.26623 -0.474836,-1.26623 -0.474836,-4.05193 0,-4.11524 1.171261,-7.81896 0.284902,-0.91802 0.918016,-1.32954 0.66477,-0.44318 1.836032,-0.44318 0.633115,0 0.88636,0.15827 0.253246,0.15828 0.253246,0.60146 0,0.50649 -0.474836,2.27921 -0.316557,1.26623 -0.506491,2.2159 -0.189935,0.94968 -0.316557,2.34253 1.044638,-2.72239 2.342523,-4.4318 1.297885,-1.70941 2.532458,-2.43749 1.266229,-0.72808 2.310867,-0.72808 2.057622,0 2.057622,2.05762 0,0.41152 -0.284901,1.99431 -0.253246,1.26623 -0.253246,1.58278 0,1.10795 0.791393,1.10795 0.88636,0 2.279212,-1.39285 0.411524,-0.41152 0.854705,-0.41152 0.411524,0 0.633114,0.37987 0.253246,0.34821 0.253246,0.94967 0,1.17126 -0.633115,1.83603 -0.88636,0.91802 -2.089277,1.58279 -1.171262,0.63311 -2.500802,0.63311 -1.677754,0 -2.564114,-0.8547 -0.854704,-0.85471 -0.854704,-2.31087 0,-0.47484 0.09497,-0.94967 0.06331,-0.63312 0.06331,-0.85471 0,-0.50649 -0.348213,-0.50649 -0.474835,0 -1.266228,1.0763 -0.759738,1.04463 -1.519475,2.7857 -0.759737,1.74106 -1.234573,3.67206 -0.348213,1.48782 -0.823049,2.02597 -0.44318,0.50649 -1.424507,0.50649 z"
         style="font-style:normal;font-variant:normal;font-weight:normal;font-stretch:normal;font-family:Pacifico;-inkscape-font-specification:Pacifico;fill:#ff6600;stroke-width:0.79139298"
         id="path83"
         inkscape:connector-curvature="0" />
      <path
         d="m 59.944571,275.33967 q -1.32954,0 -1.99431,-0.60146 -0.66477,-0.63312 -0.66477,-1.74107 0,-1.10795 0.854704,-1.83603 0.886361,-0.75974 2.184245,-0.75974 1.171262,0 1.899343,0.56981 0.728082,0.5698 0.728082,1.61444 0,1.26623 -0.823049,2.02597 -0.823049,0.72808 -2.184245,0.72808 z m -0.253245,16.99912 q -2.057622,0 -3.007294,-1.45616 -0.918016,-1.45617 -0.918016,-3.862 0,-1.42451 0.348213,-3.64041 0.379869,-2.24756 0.949672,-4.17855 0.284901,-1.01299 0.759737,-1.39286 0.474836,-0.37986 1.519475,-0.37986 1.614442,0 1.614442,1.07629 0,0.79139 -0.601459,3.67206 -0.759737,3.48213 -0.759737,4.71671 0,0.94967 0.253245,1.45616 0.253246,0.50649 0.854705,0.50649 0.569803,0 1.424507,-0.79139 0.854705,-0.7914 2.279212,-2.5008 0.379869,-0.44318 0.854705,-0.44318 0.411524,0 0.633114,0.37986 0.253246,0.37987 0.253246,1.04464 0,1.26623 -0.601459,1.96266 -3.133916,3.83034 -5.856308,3.83034 z"
         style="font-style:normal;font-variant:normal;font-weight:normal;font-stretch:normal;font-family:Pacifico;-inkscape-font-specification:Pacifico;fill:#ff6600;stroke-width:0.79139298"
         id="path85"
         inkscape:connector-curvature="0" />
      <path
         d="m 79.566669,282.55717 q 0.09497,-0.0317 0.316557,-0.0317 0.474836,0 0.728082,0.31655 0.253246,0.31656 0.253246,0.85471 0,0.98133 -0.379869,1.55113 -0.379869,0.53815 -1.139606,0.79139 -1.456163,0.47484 -3.102261,0.47484 -1.392852,0 -2.627425,-0.37987 -0.918016,1.48782 -2.025966,3.0706 -1.266229,1.80438 -2.184245,2.46915 -0.918016,0.66477 -2.089277,0.66477 -1.297885,0 -2.057622,-1.01298 -0.728082,-1.01299 -0.918016,-3.19723 -0.379869,-4.4318 -0.379869,-7.75565 v -1.10795 q 0.03166,-1.04464 0.569803,-1.45617 0.538147,-0.41152 1.614442,-0.41152 0.823049,0 1.202917,0.37987 0.411525,0.34821 0.411525,1.20292 0,3.6404 0.44318,9.46506 1.899343,-2.81736 2.849015,-4.49512 -0.474836,-0.91801 -0.474836,-2.18424 0,-1.0763 0.474836,-2.08928 0.474836,-1.01298 1.297884,-1.6461 0.823049,-0.63311 1.867688,-0.63311 0.918016,0 1.487819,0.66477 0.569803,0.63311 0.569803,1.86769 0,1.4245 -0.759737,3.26054 1.202917,-0.0633 3.197227,-0.47484 z"
         style="font-style:normal;font-variant:normal;font-weight:normal;font-stretch:normal;font-family:Pacifico;-inkscape-font-specification:Pacifico;fill:#ff6600;stroke-width:0.79139298"
         id="path87"
         inkscape:connector-curvature="0" />
      <path
         d="m 92.235883,285.12129 q 0.411525,0 0.633115,0.37986 0.253245,0.37987 0.253245,1.04464 0,1.26623 -0.601458,1.96266 -1.171262,1.42451 -3.323851,2.62742 -2.120933,1.20292 -4.558424,1.20292 -3.323851,0 -5.159883,-1.80438 -1.836032,-1.80437 -1.836032,-4.93829 0,-2.18424 0.918016,-4.05193 0.918016,-1.89934 2.532458,-3.00729 1.646098,-1.10795 3.70372,-1.10795 1.836031,0 2.943982,1.10795 1.10795,1.07629 1.10795,2.94398 0,2.18424 -1.582786,3.76703 -1.551131,1.55113 -5.286506,2.46914 0.791393,1.45617 3.007294,1.45617 1.424507,0 3.228884,-0.98133 1.836031,-1.01298 3.165572,-2.62742 0.379868,-0.44318 0.854704,-0.44318 z m -7.977242,-4.59008 q -1.171261,0 -1.99431,1.36119 -0.791393,1.3612 -0.791393,3.2922 v 0.0633 q 1.867687,-0.44318 2.943982,-1.32954 1.076294,-0.88636 1.076294,-2.05762 0,-0.60146 -0.348212,-0.94968 -0.316558,-0.37986 -0.886361,-0.37986 z"
         style="font-style:normal;font-variant:normal;font-weight:normal;font-stretch:normal;font-family:Pacifico;-inkscape-font-specification:Pacifico;fill:#ff6600;stroke-width:0.79139298"
         id="path89"
         inkscape:connector-curvature="0" />
      <path
         d="m 92.792329,292.33879 q -1.202917,0 -1.709409,-1.26623 -0.474836,-1.26623 -0.474836,-4.05193 0,-4.11524 1.171262,-7.81896 0.284901,-0.91802 0.918016,-1.32954 0.66477,-0.44318 1.836032,-0.44318 0.633114,0 0.88636,0.15827 0.253246,0.15828 0.253246,0.60146 0,0.50649 -0.474836,2.27921 -0.316557,1.26623 -0.506492,2.2159 -0.189934,0.94968 -0.316557,2.34253 1.044639,-2.72239 2.342523,-4.4318 1.297885,-1.70941 2.532458,-2.43749 1.266234,-0.72808 2.310864,-0.72808 1.01299,0 1.51948,0.53814 0.53815,0.50649 0.53815,1.51948 0,0.82305 -0.34822,3.10226 -0.31655,1.931 -0.50649,3.67206 -0.18993,1.70941 -0.18993,3.83034 0,1.20292 -0.50649,1.74107 -0.47484,0.50649 -1.58279,0.50649 -1.044639,0 -1.519475,-0.53815 -0.474836,-0.53814 -0.474836,-1.61444 0,-1.26623 0.44318,-4.17855 0.379869,-2.53246 0.379869,-3.22889 0,-0.50649 -0.348213,-0.50649 -0.411525,0 -1.171262,1.0763 -0.728082,1.04463 -1.519475,2.7857 -0.759737,1.74106 -1.234573,3.67206 -0.348213,1.48782 -0.823049,2.02597 -0.44318,0.50649 -1.424507,0.50649 z"
         style="font-style:normal;font-variant:normal;font-weight:normal;font-stretch:normal;font-family:Pacifico;-inkscape-font-specification:Pacifico;fill:#ff6600;stroke-width:0.79139298"
         id="path91"
         inkscape:connector-curvature="0" />
    </g>
    <g
       id="g4610"
       style="stroke:#004455"
       transform="matrix(1.0603745,0,0,1.0603745,190.74093,-113.00273)" />
    <flowRoot
       xml:space="preserve"
       id="flowRoot4654"
       style="font-style:normal;font-variant:normal;font-weight:normal;font-stretch:normal;font-size:40px;line-height:25px;font-family:'Schumacher Clean';-inkscape-font-specification:'Schumacher Clean';letter-spacing:0px;word-spacing:0px;fill:#000000;fill-opacity:1;stroke:none"
       transform="matrix(0.26458333,0,0,0.26458333,34.050138,101.3792)"><flowRegion
         id="flowRegion4656"><rect
           id="rect4658"
           width="33.941124"
           height="305.47012"
           x="-229.1026"
           y="-257.66635" /></flowRegion><flowPara
         id="flowPara4660" /></flowRoot>  </g>
</svg>
